<mxfile host="app.diagrams.net" modified="2022-06-06T00:01:55.309Z" agent="5.0 (Macintosh; Intel Mac OS X 10_15_7) AppleWebKit/537.36 (KHTML, like Gecko) Chrome/102.0.0.0 Safari/537.36" etag="5gp9tJxho3YY0QRNtSdy" version="19.0.0" type="github">
  <diagram id="wSAhBkBn5iiVWKkVrrop" name="Page-1">
    <mxGraphModel dx="1351" dy="877" grid="1" gridSize="10" guides="1" tooltips="1" connect="1" arrows="1" fold="1" page="1" pageScale="1" pageWidth="1100" pageHeight="850" math="0" shadow="0">
      <root>
        <mxCell id="0" />
        <mxCell id="1" parent="0" />
        <mxCell id="mTqU1Bu4WtuTapaBsfUl-72" value="" style="whiteSpace=wrap;html=1;fillColor=#FAD9D5;strokeColor=#D0CEE2;fontColor=#1A1A1A;" parent="1" vertex="1">
          <mxGeometry x="1040" y="280" width="60" height="170" as="geometry" />
        </mxCell>
        <mxCell id="mTqU1Bu4WtuTapaBsfUl-1" value="" style="whiteSpace=wrap;html=1;fillColor=#FAD9D5;strokeColor=#D0CEE2;fontColor=#1A1A1A;" parent="1" vertex="1">
          <mxGeometry x="40" y="280" width="150" height="170" as="geometry" />
        </mxCell>
        <mxCell id="mTqU1Bu4WtuTapaBsfUl-2" value="" style="whiteSpace=wrap;html=1;fillColor=#FAD9D5;strokeColor=#D0CEE2;fontColor=#1A1A1A;" parent="1" vertex="1">
          <mxGeometry x="240" y="280" width="150" height="170" as="geometry" />
        </mxCell>
        <mxCell id="mTqU1Bu4WtuTapaBsfUl-3" value="" style="whiteSpace=wrap;html=1;fillColor=#FAD9D5;strokeColor=#D0CEE2;fontColor=#1A1A1A;" parent="1" vertex="1">
          <mxGeometry x="440" y="280" width="150" height="170" as="geometry" />
        </mxCell>
        <mxCell id="mTqU1Bu4WtuTapaBsfUl-4" value="" style="whiteSpace=wrap;html=1;fillColor=#FAD9D5;strokeColor=#D0CEE2;fontColor=#1A1A1A;" parent="1" vertex="1">
          <mxGeometry x="640" y="280" width="150" height="170" as="geometry" />
        </mxCell>
        <mxCell id="mTqU1Bu4WtuTapaBsfUl-5" value="" style="whiteSpace=wrap;html=1;fillColor=#FAD9D5;strokeColor=#D0CEE2;fontColor=#1A1A1A;" parent="1" vertex="1">
          <mxGeometry x="840" y="280" width="150" height="170" as="geometry" />
        </mxCell>
        <mxCell id="mTqU1Bu4WtuTapaBsfUl-6" value="&lt;h1 style=&quot;&quot;&gt;Training Tidbits&lt;/h1&gt;" style="whiteSpace=wrap;html=1;fillColor=#FAD9D5;strokeColor=#D0CEE2;fontColor=#1A1A1A;fontStyle=1;fontFamily=Helvetica;" parent="1" vertex="1">
          <mxGeometry y="10" width="1100" height="170" as="geometry" />
        </mxCell>
        <mxCell id="mTqU1Bu4WtuTapaBsfUl-7" value="Submit New" style="strokeWidth=1;shadow=0;dashed=0;align=center;shape=mxgraph.mockup.buttons.button;mainText=;buttonStyle=round;fontSize=17;fontStyle=1;fillColor=#b1ddf0;strokeColor=#10739e;labelBackgroundColor=none;html=1;" parent="1" vertex="1">
          <mxGeometry x="40" y="550" width="150" height="50" as="geometry" />
        </mxCell>
        <mxCell id="mTqU1Bu4WtuTapaBsfUl-13" value="Name of Drug" style="shape=table;startSize=30;container=1;collapsible=0;childLayout=tableLayout;fixedRows=1;rowLines=0;fontStyle=1;fillColor=#FAD9D5;strokeColor=#D0CEE2;fontColor=#1A1A1A;" parent="1" vertex="1">
          <mxGeometry x="45" y="290" width="140" height="150" as="geometry" />
        </mxCell>
        <mxCell id="mTqU1Bu4WtuTapaBsfUl-14" value="" style="shape=tableRow;horizontal=0;startSize=0;swimlaneHead=0;swimlaneBody=0;top=0;left=0;bottom=0;right=0;collapsible=0;dropTarget=0;fillColor=none;points=[[0,0.5],[1,0.5]];portConstraint=eastwest;strokeColor=#D0CEE2;fontColor=#1A1A1A;" parent="mTqU1Bu4WtuTapaBsfUl-13" vertex="1">
          <mxGeometry y="30" width="140" height="30" as="geometry" />
        </mxCell>
        <mxCell id="mTqU1Bu4WtuTapaBsfUl-15" value="1" style="shape=partialRectangle;html=1;whiteSpace=wrap;connectable=0;fillColor=none;top=0;left=0;bottom=0;right=0;overflow=hidden;pointerEvents=1;strokeColor=#D0CEE2;fontColor=#1A1A1A;" parent="mTqU1Bu4WtuTapaBsfUl-14" vertex="1">
          <mxGeometry width="31" height="30" as="geometry">
            <mxRectangle width="31" height="30" as="alternateBounds" />
          </mxGeometry>
        </mxCell>
        <mxCell id="mTqU1Bu4WtuTapaBsfUl-16" value="Species" style="shape=partialRectangle;html=1;whiteSpace=wrap;connectable=0;fillColor=none;top=0;left=0;bottom=0;right=0;align=left;spacingLeft=6;overflow=hidden;strokeColor=#D0CEE2;fontColor=#1A1A1A;" parent="mTqU1Bu4WtuTapaBsfUl-14" vertex="1">
          <mxGeometry x="31" width="109" height="30" as="geometry">
            <mxRectangle width="109" height="30" as="alternateBounds" />
          </mxGeometry>
        </mxCell>
        <mxCell id="mTqU1Bu4WtuTapaBsfUl-17" value="" style="shape=tableRow;horizontal=0;startSize=0;swimlaneHead=0;swimlaneBody=0;top=0;left=0;bottom=0;right=0;collapsible=0;dropTarget=0;fillColor=none;points=[[0,0.5],[1,0.5]];portConstraint=eastwest;strokeColor=#D0CEE2;fontColor=#1A1A1A;" parent="mTqU1Bu4WtuTapaBsfUl-13" vertex="1">
          <mxGeometry y="60" width="140" height="30" as="geometry" />
        </mxCell>
        <mxCell id="mTqU1Bu4WtuTapaBsfUl-18" value="2" style="shape=partialRectangle;html=1;whiteSpace=wrap;connectable=0;fillColor=none;top=0;left=0;bottom=0;right=0;overflow=hidden;strokeColor=#D0CEE2;fontColor=#1A1A1A;" parent="mTqU1Bu4WtuTapaBsfUl-17" vertex="1">
          <mxGeometry width="31" height="30" as="geometry">
            <mxRectangle width="31" height="30" as="alternateBounds" />
          </mxGeometry>
        </mxCell>
        <mxCell id="mTqU1Bu4WtuTapaBsfUl-19" value="Forms" style="shape=partialRectangle;html=1;whiteSpace=wrap;connectable=0;fillColor=none;top=0;left=0;bottom=0;right=0;align=left;spacingLeft=6;overflow=hidden;strokeColor=#D0CEE2;fontColor=#1A1A1A;" parent="mTqU1Bu4WtuTapaBsfUl-17" vertex="1">
          <mxGeometry x="31" width="109" height="30" as="geometry">
            <mxRectangle width="109" height="30" as="alternateBounds" />
          </mxGeometry>
        </mxCell>
        <mxCell id="mTqU1Bu4WtuTapaBsfUl-20" value="" style="shape=tableRow;horizontal=0;startSize=0;swimlaneHead=0;swimlaneBody=0;top=0;left=0;bottom=0;right=0;collapsible=0;dropTarget=0;fillColor=none;points=[[0,0.5],[1,0.5]];portConstraint=eastwest;strokeColor=#D0CEE2;fontColor=#1A1A1A;" parent="mTqU1Bu4WtuTapaBsfUl-13" vertex="1">
          <mxGeometry y="90" width="140" height="30" as="geometry" />
        </mxCell>
        <mxCell id="mTqU1Bu4WtuTapaBsfUl-21" value="" style="shape=partialRectangle;html=1;whiteSpace=wrap;connectable=0;fillColor=none;top=0;left=0;bottom=0;right=0;overflow=hidden;strokeColor=#D0CEE2;fontColor=#1A1A1A;" parent="mTqU1Bu4WtuTapaBsfUl-20" vertex="1">
          <mxGeometry width="31" height="30" as="geometry">
            <mxRectangle width="31" height="30" as="alternateBounds" />
          </mxGeometry>
        </mxCell>
        <mxCell id="mTqU1Bu4WtuTapaBsfUl-22" value="" style="shape=partialRectangle;html=1;whiteSpace=wrap;connectable=0;fillColor=none;top=0;left=0;bottom=0;right=0;align=left;spacingLeft=6;overflow=hidden;strokeColor=#D0CEE2;fontColor=#1A1A1A;" parent="mTqU1Bu4WtuTapaBsfUl-20" vertex="1">
          <mxGeometry x="31" width="109" height="30" as="geometry">
            <mxRectangle width="109" height="30" as="alternateBounds" />
          </mxGeometry>
        </mxCell>
        <mxCell id="mTqU1Bu4WtuTapaBsfUl-23" value="Metronidazole" style="shape=table;startSize=30;container=1;collapsible=0;childLayout=tableLayout;fixedRows=1;rowLines=0;fontStyle=1;fillColor=#FAD9D5;strokeColor=#D0CEE2;fontColor=#1A1A1A;" parent="1" vertex="1">
          <mxGeometry x="245" y="290" width="140" height="150" as="geometry" />
        </mxCell>
        <mxCell id="mTqU1Bu4WtuTapaBsfUl-24" value="" style="shape=tableRow;horizontal=0;startSize=0;swimlaneHead=0;swimlaneBody=0;top=0;left=0;bottom=0;right=0;collapsible=0;dropTarget=0;fillColor=none;points=[[0,0.5],[1,0.5]];portConstraint=eastwest;strokeColor=#D0CEE2;fontColor=#1A1A1A;" parent="mTqU1Bu4WtuTapaBsfUl-23" vertex="1">
          <mxGeometry y="30" width="140" height="30" as="geometry" />
        </mxCell>
        <mxCell id="mTqU1Bu4WtuTapaBsfUl-25" value="1" style="shape=partialRectangle;html=1;whiteSpace=wrap;connectable=0;fillColor=none;top=0;left=0;bottom=0;right=0;overflow=hidden;pointerEvents=1;strokeColor=#D0CEE2;fontColor=#1A1A1A;" parent="mTqU1Bu4WtuTapaBsfUl-24" vertex="1">
          <mxGeometry width="31" height="30" as="geometry">
            <mxRectangle width="31" height="30" as="alternateBounds" />
          </mxGeometry>
        </mxCell>
        <mxCell id="mTqU1Bu4WtuTapaBsfUl-26" value="Canine &amp;amp; Feline" style="shape=partialRectangle;html=1;whiteSpace=wrap;connectable=0;fillColor=none;top=0;left=0;bottom=0;right=0;align=left;spacingLeft=6;overflow=hidden;strokeColor=#D0CEE2;fontColor=#1A1A1A;" parent="mTqU1Bu4WtuTapaBsfUl-24" vertex="1">
          <mxGeometry x="31" width="109" height="30" as="geometry">
            <mxRectangle width="109" height="30" as="alternateBounds" />
          </mxGeometry>
        </mxCell>
        <mxCell id="mTqU1Bu4WtuTapaBsfUl-27" value="" style="shape=tableRow;horizontal=0;startSize=0;swimlaneHead=0;swimlaneBody=0;top=0;left=0;bottom=0;right=0;collapsible=0;dropTarget=0;fillColor=none;points=[[0,0.5],[1,0.5]];portConstraint=eastwest;strokeColor=#D0CEE2;fontColor=#1A1A1A;" parent="mTqU1Bu4WtuTapaBsfUl-23" vertex="1">
          <mxGeometry y="60" width="140" height="30" as="geometry" />
        </mxCell>
        <mxCell id="mTqU1Bu4WtuTapaBsfUl-28" value="2" style="shape=partialRectangle;html=1;whiteSpace=wrap;connectable=0;fillColor=none;top=0;left=0;bottom=0;right=0;overflow=hidden;strokeColor=#D0CEE2;fontColor=#1A1A1A;" parent="mTqU1Bu4WtuTapaBsfUl-27" vertex="1">
          <mxGeometry width="31" height="30" as="geometry">
            <mxRectangle width="31" height="30" as="alternateBounds" />
          </mxGeometry>
        </mxCell>
        <mxCell id="mTqU1Bu4WtuTapaBsfUl-29" value="Tablet, liquid" style="shape=partialRectangle;html=1;whiteSpace=wrap;connectable=0;fillColor=none;top=0;left=0;bottom=0;right=0;align=left;spacingLeft=6;overflow=hidden;strokeColor=#D0CEE2;fontColor=#1A1A1A;" parent="mTqU1Bu4WtuTapaBsfUl-27" vertex="1">
          <mxGeometry x="31" width="109" height="30" as="geometry">
            <mxRectangle width="109" height="30" as="alternateBounds" />
          </mxGeometry>
        </mxCell>
        <mxCell id="mTqU1Bu4WtuTapaBsfUl-30" value="" style="shape=tableRow;horizontal=0;startSize=0;swimlaneHead=0;swimlaneBody=0;top=0;left=0;bottom=0;right=0;collapsible=0;dropTarget=0;fillColor=none;points=[[0,0.5],[1,0.5]];portConstraint=eastwest;strokeColor=#D0CEE2;fontColor=#1A1A1A;" parent="mTqU1Bu4WtuTapaBsfUl-23" vertex="1">
          <mxGeometry y="90" width="140" height="30" as="geometry" />
        </mxCell>
        <mxCell id="mTqU1Bu4WtuTapaBsfUl-31" value="" style="shape=partialRectangle;html=1;whiteSpace=wrap;connectable=0;fillColor=none;top=0;left=0;bottom=0;right=0;overflow=hidden;strokeColor=#D0CEE2;fontColor=#1A1A1A;" parent="mTqU1Bu4WtuTapaBsfUl-30" vertex="1">
          <mxGeometry width="31" height="30" as="geometry">
            <mxRectangle width="31" height="30" as="alternateBounds" />
          </mxGeometry>
        </mxCell>
        <mxCell id="mTqU1Bu4WtuTapaBsfUl-32" value="" style="shape=partialRectangle;html=1;whiteSpace=wrap;connectable=0;fillColor=none;top=0;left=0;bottom=0;right=0;align=left;spacingLeft=6;overflow=hidden;strokeColor=#D0CEE2;fontColor=#1A1A1A;" parent="mTqU1Bu4WtuTapaBsfUl-30" vertex="1">
          <mxGeometry x="31" width="109" height="30" as="geometry">
            <mxRectangle width="109" height="30" as="alternateBounds" />
          </mxGeometry>
        </mxCell>
        <mxCell id="mTqU1Bu4WtuTapaBsfUl-33" value="Table" style="shape=table;startSize=30;container=1;collapsible=0;childLayout=tableLayout;fixedRows=1;rowLines=0;fontStyle=1;fillColor=#FAD9D5;strokeColor=#D0CEE2;fontColor=#1A1A1A;" parent="1" vertex="1">
          <mxGeometry x="445" y="290" width="140" height="150" as="geometry" />
        </mxCell>
        <mxCell id="mTqU1Bu4WtuTapaBsfUl-34" value="" style="shape=tableRow;horizontal=0;startSize=0;swimlaneHead=0;swimlaneBody=0;top=0;left=0;bottom=0;right=0;collapsible=0;dropTarget=0;fillColor=none;points=[[0,0.5],[1,0.5]];portConstraint=eastwest;strokeColor=#D0CEE2;fontColor=#1A1A1A;" parent="mTqU1Bu4WtuTapaBsfUl-33" vertex="1">
          <mxGeometry y="30" width="140" height="30" as="geometry" />
        </mxCell>
        <mxCell id="mTqU1Bu4WtuTapaBsfUl-35" value="1" style="shape=partialRectangle;html=1;whiteSpace=wrap;connectable=0;fillColor=none;top=0;left=0;bottom=0;right=0;overflow=hidden;pointerEvents=1;strokeColor=#D0CEE2;fontColor=#1A1A1A;" parent="mTqU1Bu4WtuTapaBsfUl-34" vertex="1">
          <mxGeometry width="31" height="30" as="geometry">
            <mxRectangle width="31" height="30" as="alternateBounds" />
          </mxGeometry>
        </mxCell>
        <mxCell id="mTqU1Bu4WtuTapaBsfUl-36" value="Value 1" style="shape=partialRectangle;html=1;whiteSpace=wrap;connectable=0;fillColor=none;top=0;left=0;bottom=0;right=0;align=left;spacingLeft=6;overflow=hidden;strokeColor=#D0CEE2;fontColor=#1A1A1A;" parent="mTqU1Bu4WtuTapaBsfUl-34" vertex="1">
          <mxGeometry x="31" width="109" height="30" as="geometry">
            <mxRectangle width="109" height="30" as="alternateBounds" />
          </mxGeometry>
        </mxCell>
        <mxCell id="mTqU1Bu4WtuTapaBsfUl-37" value="" style="shape=tableRow;horizontal=0;startSize=0;swimlaneHead=0;swimlaneBody=0;top=0;left=0;bottom=0;right=0;collapsible=0;dropTarget=0;fillColor=none;points=[[0,0.5],[1,0.5]];portConstraint=eastwest;strokeColor=#D0CEE2;fontColor=#1A1A1A;" parent="mTqU1Bu4WtuTapaBsfUl-33" vertex="1">
          <mxGeometry y="60" width="140" height="30" as="geometry" />
        </mxCell>
        <mxCell id="mTqU1Bu4WtuTapaBsfUl-38" value="2" style="shape=partialRectangle;html=1;whiteSpace=wrap;connectable=0;fillColor=none;top=0;left=0;bottom=0;right=0;overflow=hidden;strokeColor=#D0CEE2;fontColor=#1A1A1A;" parent="mTqU1Bu4WtuTapaBsfUl-37" vertex="1">
          <mxGeometry width="31" height="30" as="geometry">
            <mxRectangle width="31" height="30" as="alternateBounds" />
          </mxGeometry>
        </mxCell>
        <mxCell id="mTqU1Bu4WtuTapaBsfUl-39" value="Value 2" style="shape=partialRectangle;html=1;whiteSpace=wrap;connectable=0;fillColor=none;top=0;left=0;bottom=0;right=0;align=left;spacingLeft=6;overflow=hidden;strokeColor=#D0CEE2;fontColor=#1A1A1A;" parent="mTqU1Bu4WtuTapaBsfUl-37" vertex="1">
          <mxGeometry x="31" width="109" height="30" as="geometry">
            <mxRectangle width="109" height="30" as="alternateBounds" />
          </mxGeometry>
        </mxCell>
        <mxCell id="mTqU1Bu4WtuTapaBsfUl-40" value="" style="shape=tableRow;horizontal=0;startSize=0;swimlaneHead=0;swimlaneBody=0;top=0;left=0;bottom=0;right=0;collapsible=0;dropTarget=0;fillColor=none;points=[[0,0.5],[1,0.5]];portConstraint=eastwest;strokeColor=#D0CEE2;fontColor=#1A1A1A;" parent="mTqU1Bu4WtuTapaBsfUl-33" vertex="1">
          <mxGeometry y="90" width="140" height="30" as="geometry" />
        </mxCell>
        <mxCell id="mTqU1Bu4WtuTapaBsfUl-41" value="" style="shape=partialRectangle;html=1;whiteSpace=wrap;connectable=0;fillColor=none;top=0;left=0;bottom=0;right=0;overflow=hidden;strokeColor=#D0CEE2;fontColor=#1A1A1A;" parent="mTqU1Bu4WtuTapaBsfUl-40" vertex="1">
          <mxGeometry width="31" height="30" as="geometry">
            <mxRectangle width="31" height="30" as="alternateBounds" />
          </mxGeometry>
        </mxCell>
        <mxCell id="mTqU1Bu4WtuTapaBsfUl-42" value="" style="shape=partialRectangle;html=1;whiteSpace=wrap;connectable=0;fillColor=none;top=0;left=0;bottom=0;right=0;align=left;spacingLeft=6;overflow=hidden;strokeColor=#D0CEE2;fontColor=#1A1A1A;" parent="mTqU1Bu4WtuTapaBsfUl-40" vertex="1">
          <mxGeometry x="31" width="109" height="30" as="geometry">
            <mxRectangle width="109" height="30" as="alternateBounds" />
          </mxGeometry>
        </mxCell>
        <mxCell id="mTqU1Bu4WtuTapaBsfUl-43" value="Table" style="shape=table;startSize=30;container=1;collapsible=0;childLayout=tableLayout;fixedRows=1;rowLines=0;fontStyle=1;fillColor=#FAD9D5;strokeColor=#D0CEE2;fontColor=#1A1A1A;" parent="1" vertex="1">
          <mxGeometry x="645" y="290" width="140" height="150" as="geometry" />
        </mxCell>
        <mxCell id="mTqU1Bu4WtuTapaBsfUl-44" value="" style="shape=tableRow;horizontal=0;startSize=0;swimlaneHead=0;swimlaneBody=0;top=0;left=0;bottom=0;right=0;collapsible=0;dropTarget=0;fillColor=none;points=[[0,0.5],[1,0.5]];portConstraint=eastwest;strokeColor=#D0CEE2;fontColor=#1A1A1A;" parent="mTqU1Bu4WtuTapaBsfUl-43" vertex="1">
          <mxGeometry y="30" width="140" height="30" as="geometry" />
        </mxCell>
        <mxCell id="mTqU1Bu4WtuTapaBsfUl-45" value="1" style="shape=partialRectangle;html=1;whiteSpace=wrap;connectable=0;fillColor=none;top=0;left=0;bottom=0;right=0;overflow=hidden;pointerEvents=1;strokeColor=#D0CEE2;fontColor=#1A1A1A;" parent="mTqU1Bu4WtuTapaBsfUl-44" vertex="1">
          <mxGeometry width="31" height="30" as="geometry">
            <mxRectangle width="31" height="30" as="alternateBounds" />
          </mxGeometry>
        </mxCell>
        <mxCell id="mTqU1Bu4WtuTapaBsfUl-46" value="Value 1" style="shape=partialRectangle;html=1;whiteSpace=wrap;connectable=0;fillColor=none;top=0;left=0;bottom=0;right=0;align=left;spacingLeft=6;overflow=hidden;strokeColor=#D0CEE2;fontColor=#1A1A1A;" parent="mTqU1Bu4WtuTapaBsfUl-44" vertex="1">
          <mxGeometry x="31" width="109" height="30" as="geometry">
            <mxRectangle width="109" height="30" as="alternateBounds" />
          </mxGeometry>
        </mxCell>
        <mxCell id="mTqU1Bu4WtuTapaBsfUl-47" value="" style="shape=tableRow;horizontal=0;startSize=0;swimlaneHead=0;swimlaneBody=0;top=0;left=0;bottom=0;right=0;collapsible=0;dropTarget=0;fillColor=none;points=[[0,0.5],[1,0.5]];portConstraint=eastwest;strokeColor=#D0CEE2;fontColor=#1A1A1A;" parent="mTqU1Bu4WtuTapaBsfUl-43" vertex="1">
          <mxGeometry y="60" width="140" height="30" as="geometry" />
        </mxCell>
        <mxCell id="mTqU1Bu4WtuTapaBsfUl-48" value="2" style="shape=partialRectangle;html=1;whiteSpace=wrap;connectable=0;fillColor=none;top=0;left=0;bottom=0;right=0;overflow=hidden;strokeColor=#D0CEE2;fontColor=#1A1A1A;" parent="mTqU1Bu4WtuTapaBsfUl-47" vertex="1">
          <mxGeometry width="31" height="30" as="geometry">
            <mxRectangle width="31" height="30" as="alternateBounds" />
          </mxGeometry>
        </mxCell>
        <mxCell id="mTqU1Bu4WtuTapaBsfUl-49" value="Value 2" style="shape=partialRectangle;html=1;whiteSpace=wrap;connectable=0;fillColor=none;top=0;left=0;bottom=0;right=0;align=left;spacingLeft=6;overflow=hidden;strokeColor=#D0CEE2;fontColor=#1A1A1A;" parent="mTqU1Bu4WtuTapaBsfUl-47" vertex="1">
          <mxGeometry x="31" width="109" height="30" as="geometry">
            <mxRectangle width="109" height="30" as="alternateBounds" />
          </mxGeometry>
        </mxCell>
        <mxCell id="mTqU1Bu4WtuTapaBsfUl-50" value="" style="shape=tableRow;horizontal=0;startSize=0;swimlaneHead=0;swimlaneBody=0;top=0;left=0;bottom=0;right=0;collapsible=0;dropTarget=0;fillColor=none;points=[[0,0.5],[1,0.5]];portConstraint=eastwest;strokeColor=#D0CEE2;fontColor=#1A1A1A;" parent="mTqU1Bu4WtuTapaBsfUl-43" vertex="1">
          <mxGeometry y="90" width="140" height="30" as="geometry" />
        </mxCell>
        <mxCell id="mTqU1Bu4WtuTapaBsfUl-51" value="" style="shape=partialRectangle;html=1;whiteSpace=wrap;connectable=0;fillColor=none;top=0;left=0;bottom=0;right=0;overflow=hidden;strokeColor=#D0CEE2;fontColor=#1A1A1A;" parent="mTqU1Bu4WtuTapaBsfUl-50" vertex="1">
          <mxGeometry width="31" height="30" as="geometry">
            <mxRectangle width="31" height="30" as="alternateBounds" />
          </mxGeometry>
        </mxCell>
        <mxCell id="mTqU1Bu4WtuTapaBsfUl-52" value="" style="shape=partialRectangle;html=1;whiteSpace=wrap;connectable=0;fillColor=none;top=0;left=0;bottom=0;right=0;align=left;spacingLeft=6;overflow=hidden;strokeColor=#D0CEE2;fontColor=#1A1A1A;" parent="mTqU1Bu4WtuTapaBsfUl-50" vertex="1">
          <mxGeometry x="31" width="109" height="30" as="geometry">
            <mxRectangle width="109" height="30" as="alternateBounds" />
          </mxGeometry>
        </mxCell>
        <mxCell id="mTqU1Bu4WtuTapaBsfUl-53" value="Table" style="shape=table;startSize=30;container=1;collapsible=0;childLayout=tableLayout;fixedRows=1;rowLines=0;fontStyle=1;fillColor=#FAD9D5;strokeColor=#D0CEE2;fontColor=#1A1A1A;" parent="1" vertex="1">
          <mxGeometry x="845" y="290" width="140" height="150" as="geometry" />
        </mxCell>
        <mxCell id="mTqU1Bu4WtuTapaBsfUl-54" value="" style="shape=tableRow;horizontal=0;startSize=0;swimlaneHead=0;swimlaneBody=0;top=0;left=0;bottom=0;right=0;collapsible=0;dropTarget=0;fillColor=none;points=[[0,0.5],[1,0.5]];portConstraint=eastwest;strokeColor=#D0CEE2;fontColor=#1A1A1A;" parent="mTqU1Bu4WtuTapaBsfUl-53" vertex="1">
          <mxGeometry y="30" width="140" height="30" as="geometry" />
        </mxCell>
        <mxCell id="mTqU1Bu4WtuTapaBsfUl-55" value="1" style="shape=partialRectangle;html=1;whiteSpace=wrap;connectable=0;fillColor=none;top=0;left=0;bottom=0;right=0;overflow=hidden;pointerEvents=1;strokeColor=#D0CEE2;fontColor=#1A1A1A;" parent="mTqU1Bu4WtuTapaBsfUl-54" vertex="1">
          <mxGeometry width="31" height="30" as="geometry">
            <mxRectangle width="31" height="30" as="alternateBounds" />
          </mxGeometry>
        </mxCell>
        <mxCell id="mTqU1Bu4WtuTapaBsfUl-56" value="Value 1" style="shape=partialRectangle;html=1;whiteSpace=wrap;connectable=0;fillColor=none;top=0;left=0;bottom=0;right=0;align=left;spacingLeft=6;overflow=hidden;strokeColor=#D0CEE2;fontColor=#1A1A1A;" parent="mTqU1Bu4WtuTapaBsfUl-54" vertex="1">
          <mxGeometry x="31" width="109" height="30" as="geometry">
            <mxRectangle width="109" height="30" as="alternateBounds" />
          </mxGeometry>
        </mxCell>
        <mxCell id="mTqU1Bu4WtuTapaBsfUl-57" value="" style="shape=tableRow;horizontal=0;startSize=0;swimlaneHead=0;swimlaneBody=0;top=0;left=0;bottom=0;right=0;collapsible=0;dropTarget=0;fillColor=none;points=[[0,0.5],[1,0.5]];portConstraint=eastwest;strokeColor=#D0CEE2;fontColor=#1A1A1A;" parent="mTqU1Bu4WtuTapaBsfUl-53" vertex="1">
          <mxGeometry y="60" width="140" height="30" as="geometry" />
        </mxCell>
        <mxCell id="mTqU1Bu4WtuTapaBsfUl-58" value="2" style="shape=partialRectangle;html=1;whiteSpace=wrap;connectable=0;fillColor=none;top=0;left=0;bottom=0;right=0;overflow=hidden;strokeColor=#D0CEE2;fontColor=#1A1A1A;" parent="mTqU1Bu4WtuTapaBsfUl-57" vertex="1">
          <mxGeometry width="31" height="30" as="geometry">
            <mxRectangle width="31" height="30" as="alternateBounds" />
          </mxGeometry>
        </mxCell>
        <mxCell id="mTqU1Bu4WtuTapaBsfUl-59" value="Value 2" style="shape=partialRectangle;html=1;whiteSpace=wrap;connectable=0;fillColor=none;top=0;left=0;bottom=0;right=0;align=left;spacingLeft=6;overflow=hidden;strokeColor=#D0CEE2;fontColor=#1A1A1A;" parent="mTqU1Bu4WtuTapaBsfUl-57" vertex="1">
          <mxGeometry x="31" width="109" height="30" as="geometry">
            <mxRectangle width="109" height="30" as="alternateBounds" />
          </mxGeometry>
        </mxCell>
        <mxCell id="mTqU1Bu4WtuTapaBsfUl-60" value="" style="shape=tableRow;horizontal=0;startSize=0;swimlaneHead=0;swimlaneBody=0;top=0;left=0;bottom=0;right=0;collapsible=0;dropTarget=0;fillColor=none;points=[[0,0.5],[1,0.5]];portConstraint=eastwest;strokeColor=#D0CEE2;fontColor=#1A1A1A;" parent="mTqU1Bu4WtuTapaBsfUl-53" vertex="1">
          <mxGeometry y="90" width="140" height="30" as="geometry" />
        </mxCell>
        <mxCell id="mTqU1Bu4WtuTapaBsfUl-61" value="" style="shape=partialRectangle;html=1;whiteSpace=wrap;connectable=0;fillColor=none;top=0;left=0;bottom=0;right=0;overflow=hidden;strokeColor=#D0CEE2;fontColor=#1A1A1A;" parent="mTqU1Bu4WtuTapaBsfUl-60" vertex="1">
          <mxGeometry width="31" height="30" as="geometry">
            <mxRectangle width="31" height="30" as="alternateBounds" />
          </mxGeometry>
        </mxCell>
        <mxCell id="mTqU1Bu4WtuTapaBsfUl-62" value="" style="shape=partialRectangle;html=1;whiteSpace=wrap;connectable=0;fillColor=none;top=0;left=0;bottom=0;right=0;align=left;spacingLeft=6;overflow=hidden;strokeColor=#D0CEE2;fontColor=#1A1A1A;" parent="mTqU1Bu4WtuTapaBsfUl-60" vertex="1">
          <mxGeometry x="31" width="109" height="30" as="geometry">
            <mxRectangle width="109" height="30" as="alternateBounds" />
          </mxGeometry>
        </mxCell>
        <mxCell id="mTqU1Bu4WtuTapaBsfUl-63" value="Search" style="strokeWidth=1;shadow=0;dashed=0;align=center;html=1;shape=mxgraph.mockup.text.textBox;align=left;fontSize=17;spacingLeft=4;spacingTop=-3;mainText=;fillColor=#d0cee2;strokeColor=#56517e;" parent="1" vertex="1">
          <mxGeometry x="40" y="210" width="150" height="30" as="geometry" />
        </mxCell>
        <mxCell id="mTqU1Bu4WtuTapaBsfUl-70" value="" style="shape=or;whiteSpace=wrap;html=1;rotation=-180;fillColor=#FAD9D5;strokeColor=#D0CEE2;fontColor=#1A1A1A;" parent="1" vertex="1">
          <mxGeometry y="325" width="60" height="80" as="geometry" />
        </mxCell>
        <mxCell id="mTqU1Bu4WtuTapaBsfUl-71" value="" style="shape=or;whiteSpace=wrap;html=1;fillColor=#FAD9D5;strokeColor=#D0CEE2;fontColor=#1A1A1A;" parent="1" vertex="1">
          <mxGeometry x="1040" y="325" width="60" height="80" as="geometry" />
        </mxCell>
        <mxCell id="mTqU1Bu4WtuTapaBsfUl-92" value="" style="shape=singleArrow;direction=west;whiteSpace=wrap;html=1;fillColor=#FAD9D5;strokeColor=#D0CEE2;fontColor=#1A1A1A;" parent="1" vertex="1">
          <mxGeometry x="10" y="355" width="40" height="20" as="geometry" />
        </mxCell>
        <mxCell id="mTqU1Bu4WtuTapaBsfUl-93" value="" style="shape=singleArrow;direction=west;whiteSpace=wrap;html=1;rotation=-180;fillColor=#FAD9D5;strokeColor=#D0CEE2;fontColor=#1A1A1A;" parent="1" vertex="1">
          <mxGeometry x="1050" y="355" width="40" height="20" as="geometry" />
        </mxCell>
        <mxCell id="h_-MOUCBoz-yRPNMzMAU-1" value="Commonly Prescribed Medications" style="rounded=1;whiteSpace=wrap;html=1;fontFamily=Helvetica;fontSize=24;" vertex="1" parent="1">
          <mxGeometry x="340" y="200" width="440" height="50" as="geometry" />
        </mxCell>
      </root>
    </mxGraphModel>
  </diagram>
</mxfile>
